# This file uses centimeters as units for non-parametric coordinates.

mtllib Node.mtl
g default
v -0.500000 -0.125000 0.500000
v 0.500000 -0.125000 0.500000
v -0.500000 -0.125000 -0.500000
v 0.500000 -0.125000 -0.500000
v -0.500000 0.112501 0.500000
v -0.487501 0.125000 0.487501
v 0.487501 0.125000 0.487501
v 0.500000 0.112501 0.500000
v -0.487501 0.125000 -0.487501
v -0.500000 0.112501 -0.500000
v 0.487501 0.125000 -0.487501
v 0.500000 0.112501 -0.500000
vt 0.818080 0.816700
vt 0.806942 0.808774
vt 0.808774 0.193058
vt 0.816700 0.181920
vt 0.183300 0.818080
vt 0.191226 0.806942
vt 0.181919 0.183300
vt 0.193058 0.191226
vt 0.968063 0.817146
vt 0.182854 0.968063
vt 0.031937 0.182854
vt 0.817146 0.031937
vt 0.969942 0.185645
vt 0.819960 0.185199
vt 0.185199 0.180040
vt 0.185645 0.030058
vt 0.814801 0.819960
vt 0.814355 0.969942
vt 0.030058 0.814355
vt 0.180040 0.814801
vn -0.707107 0.707106 0.000000
vn -0.707107 0.707106 0.000000
vn -0.707107 0.707106 0.000000
vn -0.707107 0.707106 0.000000
vn 0.000000 0.707107 0.707107
vn 0.000000 0.707107 0.707107
vn 0.000000 0.707107 0.707107
vn 0.000000 0.707107 0.707107
vn 0.707107 0.707106 0.000000
vn 0.707107 0.707106 0.000000
vn 0.707107 0.707106 0.000000
vn 0.707107 0.707106 0.000000
vn 0.000000 0.707107 -0.707107
vn 0.000000 0.707107 -0.707107
vn 0.000000 0.707107 -0.707107
vn 0.000000 0.707107 -0.707107
vn 0.000000 0.000000 1.000000
vn 0.000000 0.000000 1.000000
vn 0.000000 0.000000 1.000000
vn 0.000000 0.000000 1.000000
vn 0.000000 1.000000 0.000000
vn 0.000000 1.000000 0.000000
vn 0.000000 1.000000 0.000000
vn 0.000000 1.000000 0.000000
vn 0.000000 0.000000 -1.000000
vn 0.000000 0.000000 -1.000000
vn 0.000000 0.000000 -1.000000
vn 0.000000 0.000000 -1.000000
vn 1.000000 0.000000 0.000000
vn 1.000000 0.000000 0.000000
vn 1.000000 0.000000 0.000000
vn 1.000000 0.000000 0.000000
vn -1.000000 0.000000 0.000000
vn -1.000000 0.000000 0.000000
vn -1.000000 0.000000 0.000000
vn -1.000000 0.000000 0.000000
s off
g pCube1
usemtl initialShadingGroup
f 5/1/1 6/2/2 9/3/3 10/14/4
f 6/2/5 5/17/6 8/5/7 7/6/8
f 7/6/9 8/20/10 12/7/11 11/8/12
f 10/4/13 9/3/14 11/8/15 12/15/16
f 1/18/17 2/10/18 8/5/19 5/17/20
f 6/2/21 7/6/22 11/8/23 9/3/24
f 10/4/25 12/15/26 4/16/27 3/12/28
f 2/19/29 4/11/30 12/7/31 8/20/32
f 3/13/33 1/9/34 5/1/35 10/14/36
